# xmcd
#
# Track frame offsets:
#	150
#	16522
#	34000
#	48947
#	62670
#	77242
#	93335
#	113210
#	128387
#	145557
#	168470
#	186660
#	201640
#	219490
#	235907
#
# Disc length: 3370 seconds
#
# Revision: 1
# Processed by: cddbd v1.5.1PL0 Copyright (c) Steve Scherf et al.
# Submitted via: audiograbber 1.82.02
#
DISCID=c90d280f
DTITLE=Various Artist - Sound Choice 8232 Country
DYEAR=1900
DGENRE=Karaoke
TTITLE0=Tracy Byrd - Heaven in my woman's eyes
TTITLE1=Clay Walker - Hypnotize the moon
TTITLE2=Cooter Brown - Pure bred redneck
TTITLE3=John Anderson - Paradise
TTITLE4=Lonestar - No news
TTITLE5=Tracy Lawrence - If you loved me
TTITLE6=Doug Supernaw - You still got me
TTITLE7=Mark Chesnutt - It wouldn't hurt to have wings
TTITLE8=Aaron Tippin - Without your love
TTITLE9=Ty Herndon and Stephanie Bently - Heart half empty
TTITLE10=Diamond Rio - Walkin' away
TTITLE11=Johnny Cash and June Carter Cash - Jackson
TTITLE12=Little Texas - Country Crazy
TTITLE13=Patty Loveless - You can feel bad
TTITLE14=James Bonamy - She's got a mind of her own
EXTD=
EXTT0=
EXTT1=
EXTT2=
EXTT3=
EXTT4=
EXTT5=
EXTT6=
EXTT7=
EXTT8=
EXTT9=
EXTT10=
EXTT11=
EXTT12=
EXTT13=
EXTT14=
PLAYORDER=
